<?xml version="1.0" standalone="no"?>
<!DOCTYPE svg PUBLIC "-//W3C//DTD SVG 20010904//EN"
 "http://www.w3.org/TR/2001/REC-SVG-20010904/DTD/svg10.dtd">
<svg version="1.0" xmlns="http://www.w3.org/2000/svg"
 width="512.000000pt" height="512.000000pt" viewBox="0 0 512.000000 512.000000"
 preserveAspectRatio="xMidYMid meet">

<g transform="translate(0.000000,512.000000) scale(0.100000,-0.100000)"
fill="#000000" stroke="none">
<path d="M978 4913 c-8 -10 -232 -314 -497 -675 l-481 -658 1280 -1687 c705
-929 1284 -1689 1289 -1691 4 -1 580 758 1279 1688 l1272 1691 -493 672 -493
672 -1570 3 c-1486 2 -1572 1 -1586 -15z m688 -385 c-18 -57 -84 -259 -147
-450 l-114 -348 -457 0 c-252 0 -458 3 -458 6 0 4 147 206 326 450 l325 444
279 0 278 0 -32 -102z m1583 -335 c79 -241 146 -444 148 -450 4 -10 -166 -13
-837 -13 -708 0 -841 2 -837 14 3 7 70 210 148 450 l143 436 546 0 546 0 143
-437z m1055 -7 c179 -244 326 -446 326 -450 0 -3 -206 -6 -457 -6 l-458 0 -94
288 c-52 158 -118 360 -147 450 l-52 162 278 0 279 0 325 -444z m-2541 -1823
c197 -586 356 -1068 354 -1070 -2 -2 -290 374 -639 834 -350 461 -715 943
-812 1071 l-177 232 459 0 458 0 357 -1067z m1632 1055 c-2 -7 -189 -573 -415
-1257 -225 -685 -411 -1246 -413 -1247 -1 -1 -192 564 -424 1257 l-422 1259
839 0 c667 0 838 -3 835 -12z m1228 0 c-6 -7 -367 -488 -803 -1068 -436 -580
-799 -1061 -806 -1069 -7 -8 66 224 162 515 96 291 256 778 356 1082 l182 552
459 0 c366 0 457 -3 450 -12z"/>
</g>
</svg>
